<?xml version="1.0" encoding="utf-8"?>
<!-- Generator: Adobe Illustrator 26.5.0, SVG Export Plug-In . SVG Version: 6.00 Build 0)  -->
<svg version="1.1" id="_x2018_ëîé_x5F_1" xmlns="http://www.w3.org/2000/svg" xmlns:xlink="http://www.w3.org/1999/xlink"
	 x="0px" y="0px" viewBox="0 0 5000 3000" style="enable-background:new 0 0 5000 3000;" xml:space="preserve">
<style type="text/css">
	.st0{fill:#FFFFFF;}
	.st1{fill:#488AC9;stroke:#488AC9;stroke-miterlimit:10;}
	.st2{fill:#488AC9;}
	.st3{font-family:'Komet-ExtraLightSCItalic';}
	.st4{font-size:612.6217px;}
</style>
<rect class="st0" width="5000" height="3000"/>
<g>
	<path class="st1" d="M2754.68,1125.72c-13.23-31.99-31.84-60.89-55.31-85.91c-43.96-47.17-103.17-78.37-166.73-87.87
		c-25.98-3.92-54.2-4.14-79.25-0.78c-33.73,4.25-66.13,14.46-96.26,30.31c-11.52,5.99-22.76,12.91-33.42,20.54
		c-40.92,29.19-73.55,68.71-94.35,114.25c-5.42,11.82-10.08,24.24-13.84,36.91c-7.92,26.55-11.94,54.14-11.94,81.99
		c0,40.88,8.41,80.34,25.01,117.29c6.01,13.34,13.11,26.35,21.09,38.69c28.23,43.41,67.65,78.38,113.95,101.11
		c12.81,6.37,26.58,11.9,40.98,16.44c27.58,8.57,56.32,12.92,85.41,12.92c42.09,0,82.7-8.96,120.71-26.62
		c37.38-17.45,71.25-43.32,97.91-74.79c43.69-51.56,67.76-117.28,67.76-185.03C2776.41,1197.19,2769.1,1160.36,2754.68,1125.72z
		 M2736.01,1133.46c0.38,0.91,0.7,1.84,1.07,2.76c-22.22,99.03-113.97,156.65-125.32,163.43c-53.4,18.26-87.18,44.58-107.69,66.7
		c10.39-31.88,20.55-67.61,28.89-105.67l0.15-0.01c0-0.11-0.01-0.32-0.03-0.57c3.32-15.19,6.34-30.75,8.98-46.58l0.34,0.06
		c0.04-0.24,4.42-24.64,25.28-56.48c18.56-28.31,54.28-68.24,119.55-100.55C2707.79,1079.13,2724.22,1104.96,2736.01,1133.46z
		 M2677.5,1046.31c-71.43,36.18-108.94,81.02-128.34,114.85c3.08-30.08,4.44-60.71,3.46-91.3c1.86-6.05,20.69-64.34,57.68-72.05
		C2634.96,1010.33,2657.71,1026.66,2677.5,1046.31z M2593.14,989.81c-19.83,10.27-33.7,31.17-42.35,48.63
		c-1.89-21.73-5.11-43.31-9.84-64.55C2558.89,977.37,2576.38,982.74,2593.14,989.81z M2460.27,970.78
		c9.61-1.11,19.55-1.78,29.76-1.78c12.38,0,24.65,0.93,36.61,2.59c19.94,84.7,14.47,175.65-1.01,257.98
		c-6.42-16.7-18.4-38.34-40.55-60.42C2477.25,1159.32,2444.05,1108.44,2460.27,970.78z M2446.49,972.62
		c-10.08,88.9-0.05,142.71,11.23,173.28c-17.57-12.82-39.26-25.23-65.97-36.34c5.37-13.25,8.39-27.69,8.39-42.85
		c0-26.4-8.88-51.36-25.14-71.57C2397.7,984.23,2421.65,976.67,2446.49,972.62z M2331.77,1021.3
		c11.89,12.05,18.64,28.15,18.64,45.42c0,35.71-29.08,64.76-64.82,64.76c-12.85,0-25.28-3.84-35.81-10.88
		C2268.52,1081.39,2296.71,1047.24,2331.77,1021.3z M2244.27,1133.06c12.3,7.7,26.58,11.89,41.33,11.89
		c43.17,0,78.29-35.09,78.29-78.23c0-20.07-7.58-38.84-20.96-53.2c6.45-4.29,13.04-8.32,19.81-11.99
		c15.43,18.17,23.93,40.98,23.93,65.19c0,55.74-45.34,101.07-101.07,101.07c-17.42,0-34.29-4.47-49.33-12.89
		C2238.6,1147.46,2241.3,1140.19,2244.27,1133.06z M2367.61,1471.48c-39.26-20.32-72.86-50.16-97.79-86.8
		c11.43-8.39,25.14-12.98,39.49-12.98c36.97,0,67.05,30.07,67.05,67.04C2376.36,1450.35,2373.26,1461.48,2367.61,1471.48z
		 M2406.14,1487.79c-9.1-3.04-17.85-6.54-26.27-10.39c6.52-11.82,9.96-24.98,9.96-38.66c0-44.4-36.12-80.52-80.52-80.52
		c-16.95,0-33.14,5.35-46.72,15.1c-4.89-8.07-9.4-16.36-13.42-24.86c17.84-11.94,38.43-18.28,60.14-18.28
		c59.86,0,108.56,48.69,108.56,108.55C2417.87,1455.91,2413.8,1472.69,2406.14,1487.79z M2419.22,1491.71
		c7.92-16.42,12.12-34.49,12.12-52.98c0-67.28-54.74-122.03-122.03-122.03c-23.63,0-46.1,6.66-65.7,19.27
		c-13.09-31.94-19.81-65.79-19.81-100.8c0-22.7,3.04-45.16,8.72-67c16.32,8.55,34.42,13.09,53.07,13.09
		c43.22,0,80.9-24.07,100.41-59.5c66.24,27.49,99.05,63.27,114.9,88.81c14.88,23.98,17.99,43.45,18.61,49
		c-25.66,115.93-68.33,209.88-81.17,236.64C2431.91,1494.95,2425.54,1493.45,2419.22,1491.71z M2607.53,1474
		c-3.17-6.84-4.9-14.28-4.9-21.99c0-29.13,23.67-52.83,52.76-52.83c12.53,0,24.46,4.45,33.88,12.38
		C2666.42,1437.32,2638.38,1458.74,2607.53,1474z M2697.95,1401.31c-11.84-9.97-26.8-15.6-42.56-15.6
		c-36.52,0-66.24,29.75-66.24,66.31c0,9.68,2.16,19.04,6.14,27.65c-33.31,14.37-68.67,21.74-105.26,21.74
		c-12.75,0-25.41-0.97-37.93-2.76c7.31-15.47,20.99-45.88,35.97-86.31l0.24,0.1c0.12-0.31,12.91-30.76,52.68-60.78
		c35.6-26.86,100.57-58.56,209.23-60.55C2741.59,1331.23,2723.77,1369.02,2697.95,1401.31z M2650.88,1288.67
		c30.79-24.63,74.29-68.4,94.09-130.14c7.45,24.69,11.23,50.36,11.23,76.65c0,14.28-1.21,28.46-3.46,42.42
		C2713.81,1278.1,2680.02,1282.17,2650.88,1288.67z"/>
	<path class="st1" d="M2384.23,1211.17c-25.91,0-46.98,21.08-46.98,46.99c0,25.91,21.08,46.98,46.98,46.98
		c25.91,0,46.99-21.08,46.99-46.98C2431.22,1232.25,2410.15,1211.17,2384.23,1211.17z M2384.23,1291.67
		c-18.48,0-33.51-15.03-33.51-33.51c0-18.48,15.03-33.51,33.51-33.51c18.48,0,33.51,15.04,33.51,33.51
		C2417.75,1276.64,2402.71,1291.67,2384.23,1291.67z"/>
	<path class="st1" d="M2655.42,1234.66c22.16,0,40.18-18.03,40.18-40.19c0-22.16-18.02-40.18-40.18-40.18
		c-22.16,0-40.19,18.02-40.19,40.18C2615.24,1216.63,2633.27,1234.66,2655.42,1234.66z M2655.42,1167.77
		c14.73,0,26.7,11.98,26.7,26.7c0,14.73-11.98,26.71-26.7,26.71s-26.71-11.98-26.71-26.71
		C2628.71,1179.74,2640.7,1167.77,2655.42,1167.77z"/>
	<text transform="matrix(1.4609 0 0 1 1733.7339 2091.8447)" class="st2 st3 st4">LIFE</text>
</g>
</svg>
